<svg width="82" height="82" viewBox="0 0 82 82" fill="none" xmlns="http://www.w3.org/2000/svg">
<circle cx="41" cy="41" r="40" fill="#FAFF00" stroke="black"/>
<path d="M26.7936 40.9V38.65H30.9436V37.85H25.8936V45H31.0636V44.2H26.7936V41.7H30.4636V40.9H26.7936ZM32.1143 45H33.0143V39.13H33.0343L36.6043 45H37.7043V37.85H36.8043V43.74H36.7843L33.2143 37.85H32.1143V45ZM40.724 45H41.624V38.65H44.004V37.85H38.344V38.65H40.724V45ZM45.7975 40.9V38.65H49.9475V37.85H44.8975V45H50.0675V44.2H45.7975V41.7H49.4675V40.9H45.7975ZM51.1182 45H52.0182V42.11H54.0682C55.8782 42.11 55.1982 44.7 55.5082 45H56.4782V44.94C56.1082 44.82 56.6882 42.01 55.0982 41.7V41.68C55.8882 41.48 56.3782 40.91 56.3782 39.88C56.3782 38.61 55.4282 37.85 54.0182 37.85H51.1182V45ZM52.0182 38.65H53.8082C54.5482 38.65 55.4782 38.74 55.4782 39.98C55.4782 41.22 54.5482 41.31 53.8082 41.31H52.0182V38.65Z" fill="black"/>
</svg>
