<svg width="82" height="82" viewBox="0 0 82 82" fill="none" xmlns="http://www.w3.org/2000/svg">
<circle cx="41" cy="41" r="40" fill="white" stroke="black"/>
<path d="M6.72371 39H9.31371C11.2837 39 12.4937 37.73 12.4937 35.43C12.4937 33.13 11.2837 31.85 9.31371 31.85H6.72371V39ZM7.62371 32.65H9.31371C11.1337 32.65 11.5937 34.03 11.5937 35.43C11.5937 36.83 11.1337 38.2 9.31371 38.2H7.62371V32.65ZM16.7896 39.14C18.8896 39.14 20.2896 37.57 20.2896 35.42C20.2896 33.27 18.8896 31.71 16.7896 31.71C14.6896 31.71 13.2896 33.27 13.2896 35.42C13.2896 37.57 14.6896 39.14 16.7896 39.14ZM16.7896 38.34C14.9896 38.34 14.1896 36.96 14.1896 35.42C14.1896 33.88 14.9896 32.51 16.7896 32.51C18.5896 32.51 19.3896 33.88 19.3896 35.42C19.3896 36.96 18.5896 38.34 16.7896 38.34ZM26.7224 36.62V31.85H25.8224V36.62C25.8224 37.78 25.2224 38.34 23.9824 38.34C22.7424 38.34 22.1424 37.78 22.1424 36.62V31.85H21.2424V36.62C21.2424 38.08 22.0724 39.14 23.9824 39.14C25.8924 39.14 26.7224 38.08 26.7224 36.62ZM33.1644 33.65C33.1644 32.54 32.2844 31.85 30.8244 31.85H27.9444V39H31.0244C32.5044 39 33.4444 38.24 33.4444 36.92C33.4444 35.85 32.8044 35.28 32.0544 35.15V35.13C32.6444 34.93 33.1644 34.53 33.1644 33.65ZM28.8444 34.84V32.65H31.0644C31.8844 32.65 32.2644 33.1 32.2644 33.75C32.2644 34.4 31.9844 34.84 30.9644 34.84H28.8444ZM28.8444 35.64H31.3144C32.0644 35.64 32.5444 36.15 32.5444 36.92C32.5444 37.59 32.2644 38.2 31.1144 38.2H28.8444V35.64ZM34.38 31.85V39H39.03V38.2H35.28V31.85H34.38ZM40.8171 34.9V32.65H44.9671V31.85H39.9171V39H45.0871V38.2H40.8171V35.7H44.4871V34.9H40.8171ZM53.3197 34.21H54.2197C54.0497 32.85 52.9297 31.71 51.1797 31.71C49.2197 31.71 47.8697 33.27 47.8697 35.42C47.8697 37.58 49.2197 39.14 51.1797 39.14C52.9397 39.14 54.0597 38 54.2197 36.42H53.3197C53.2597 37.32 52.6797 38.34 51.1797 38.34C49.4797 38.34 48.7697 36.87 48.7697 35.42C48.7697 33.98 49.4797 32.51 51.1797 32.51C52.6697 32.51 53.1897 33.53 53.3197 34.21ZM55.2296 31.85V39H59.8796V38.2H56.1296V31.85H55.2296ZM60.7867 31.85V39H61.6867V31.85H60.7867ZM68.2709 34.21H69.1709C69.0009 32.85 67.8809 31.71 66.1309 31.71C64.1709 31.71 62.8209 33.27 62.8209 35.42C62.8209 37.58 64.1709 39.14 66.1309 39.14C67.8909 39.14 69.0109 38 69.1709 36.42H68.2709C68.2109 37.32 67.6309 38.34 66.1309 38.34C64.4309 38.34 63.7209 36.87 63.7209 35.42C63.7209 33.98 64.4309 32.51 66.1309 32.51C67.6209 32.51 68.1409 33.53 68.2709 34.21ZM70.1807 31.85V39H71.0807V36.79L72.3607 35.44L74.9207 39H75.9707L72.9607 34.82L75.7707 31.85H74.6707L71.0807 35.68V31.85H70.1807ZM20.0941 51H20.9941V44.65H23.3741V43.85H17.7141V44.65H20.0941V51ZM27.0484 51.14C29.1484 51.14 30.5484 49.57 30.5484 47.42C30.5484 45.27 29.1484 43.71 27.0484 43.71C24.9484 43.71 23.5484 45.27 23.5484 47.42C23.5484 49.57 24.9484 51.14 27.0484 51.14ZM27.0484 50.34C25.2484 50.34 24.4484 48.96 24.4484 47.42C24.4484 45.88 25.2484 44.51 27.0484 44.51C28.8484 44.51 29.6484 45.88 29.6484 47.42C29.6484 48.96 28.8484 50.34 27.0484 50.34ZM34.5231 46.9V44.65H38.6731V43.85H33.6231V51H38.7931V50.2H34.5231V47.7H38.1931V46.9H34.5231ZM39.8438 51H40.7438V45.13H40.7638L44.3338 51H45.4338V43.85H44.5338V49.74H44.5138L40.9438 43.85H39.8438V51ZM48.4535 51H49.3535V44.65H51.7335V43.85H46.0735V44.65H48.4535V51ZM53.527 46.9V44.65H57.677V43.85H52.627V51H57.797V50.2H53.527V47.7H57.197V46.9H53.527ZM58.8477 51H59.7477V48.11H61.7977C63.6077 48.11 62.9277 50.7 63.2377 51H64.2077V50.94C63.8377 50.82 64.4177 48.01 62.8277 47.7V47.68C63.6177 47.48 64.1077 46.91 64.1077 45.88C64.1077 44.61 63.1577 43.85 61.7477 43.85H58.8477V51ZM59.7477 44.65H61.5377C62.2777 44.65 63.2077 44.74 63.2077 45.98C63.2077 47.22 62.2777 47.31 61.5377 47.31H59.7477V44.65Z" fill="black"/>
</svg>
