<svg width="1000" height="1000" viewBox="0 0 1000 1000" fill="none" xmlns="http://www.w3.org/2000/svg">
<path d="M0 298.649C0 376.23 30.012 446.902 79.2165 500C30.012 553.098 0 623.77 0 701.351C0 866.29 135.653 1000 302.989 1000C378.209 1000 447.028 972.982 500 928.255C552.972 972.982 621.791 1000 697.011 1000C864.347 1000 1000 866.29 1000 701.351C1000 623.77 969.988 553.098 920.784 500C969.988 446.902 1000 376.23 1000 298.649C1000 133.71 864.347 0 697.011 0C621.791 0 552.972 27.0179 500 71.7454C447.028 27.0179 378.209 0 302.989 0C135.653 0 0 133.71 0 298.649Z" fill="white"/>
</svg>
