<svg width="675" height="1000" viewBox="0 0 675 1000" fill="none" xmlns="http://www.w3.org/2000/svg">
<path fill-rule="evenodd" clip-rule="evenodd" d="M674.716 189.631C674.716 253.786 618.038 310.5 531.293 344.815C618.038 379.131 674.716 435.845 674.716 500C674.716 564.155 618.038 620.869 531.293 655.185C618.038 689.5 674.716 746.214 674.716 810.369C674.716 915.099 523.676 1000 337.358 1000C151.04 1000 0 915.099 0 810.369C0 746.214 56.6778 689.5 143.423 655.185C56.6778 620.869 0 564.155 0 500C0 435.845 56.6778 379.131 143.423 344.815C56.6778 310.5 0 253.786 0 189.631C0 84.9005 151.04 0 337.358 0C523.676 0 674.716 84.9005 674.716 189.631Z" fill="white"/>
</svg>
