<svg width="1000" height="751" viewBox="0 0 1000 751" fill="none" xmlns="http://www.w3.org/2000/svg">
<path fill-rule="evenodd" clip-rule="evenodd" d="M0 198.781C0 88.9972 89.0616 0 198.925 0C259.073 0 312.986 26.6756 349.462 68.8335C385.939 26.6756 439.852 0 500 0C560.148 0 614.061 26.6756 650.538 68.8335C687.014 26.6756 740.927 0 801.075 0C910.938 0 1000 88.9972 1000 198.781V551.572C1000 661.355 910.938 750.353 801.075 750.353C740.927 750.353 687.014 723.677 650.538 681.519C614.061 723.677 560.148 750.353 500 750.353C439.852 750.353 385.939 723.677 349.462 681.519C312.986 723.677 259.073 750.353 198.925 750.353C89.0616 750.353 0 661.355 0 551.572V198.781Z" fill="white"/>
</svg>
