<svg xmlns="http://www.w3.org/2000/svg" viewBox="0 0 512 512">
<style>
  path {
    fill: #153a51;
  }

  @media (prefers-color-scheme: dark) {
    path {
      fill: #faff00;
    } 
  }
</style>

<path d="M421.92 295.483C378.528 270.576 339.476 290.068 265.71 251.083C339.476 212.098 378.528 229.424 421.92 204.517C449.04 189.356 455.548 161.2 442.531 138.459C430.598 116.8 402.394 108.137 375.274 123.298C331.882 149.288 329.713 192.605 259.201 237.005C262.456 153.619 297.169 128.712 297.169 78.8975C297.169 47.4927 275.473 28 250.523 28C224.488 28 203.877 47.4927 203.877 78.8975C203.877 128.712 240.76 153.619 244.014 239.171C171.333 193.688 168.079 149.288 125.772 123.298C97.5678 108.137 70.448 116.8 57.4305 138.459C44.4131 161.2 50.9218 189.356 79.1263 204.517C121.433 229.424 160.486 212.098 235.336 251.083C160.486 290.068 121.433 270.576 79.1263 295.483C50.9218 310.644 44.4131 338.8 57.4305 360.459C70.448 383.2 97.5678 391.863 125.772 375.62C168.079 350.712 172.418 309.561 244.014 264.078C239.675 346.38 203.877 372.371 203.877 421.102C203.877 452.507 224.488 472 250.523 472C275.473 472 297.169 452.507 297.169 421.102C297.169 372.371 263.541 347.463 259.201 266.244C328.628 310.644 331.882 350.712 375.274 375.62C402.394 391.863 430.598 383.2 442.531 360.459C455.548 338.8 449.04 310.644 421.92 295.483Z" fill="black"/>
</svg>
